<svg width="167" height="48" viewBox="0 0 167 48" fill="none" xmlns="http://www.w3.org/2000/svg">
<path d="M20.5034 0H25.2559L45.7593 46.7865V47.191H39.1737L34.625 36.4045H11.1343L6.58554 47.191H0V46.7865L20.5034 0ZM22.8796 8.62921L13.3069 31.3483H32.4524L22.8796 8.62921Z" fill="#E6C284"/>
<path d="M82.9579 46.9888V47.191H76.1008L64.7628 32.2921L53.357 47.191H46.5678V46.9888L60.893 27.9775L47.7219 10.3146V10.1124H54.579L64.7628 24.0674L82.9579 0H89.7472V0.202246L68.5648 27.9775L82.9579 46.9888Z" fill="#E6C284"/>
<path d="M90.0593 47.191H84.0169V10.1124H90.0593V47.191Z" fill="#E6C284"/>
<path d="M111.572 48C100.641 48 92.7659 39.9775 92.7659 28.6517C92.7659 17.3258 100.641 9.30337 111.572 9.30337C122.571 9.30337 130.446 17.3258 130.446 28.6517C130.446 39.9775 122.571 48 111.572 48ZM111.572 42.6067C119.108 42.6067 124.607 36.7416 124.607 28.6517C124.607 20.5618 119.108 14.6966 111.572 14.6966C104.104 14.6966 98.6046 20.5618 98.6046 28.6517C98.6046 36.7416 104.104 42.6067 111.572 42.6067Z" fill="#E6C284"/>
<path d="M152.403 9.50562C161.568 9.50562 167.067 15.7753 166.999 26.427V47.191H160.957L161.025 26.764C161.025 19.4157 156.748 14.5618 150.298 14.5618C143.645 14.5618 139.299 19.4157 139.299 26.764V47.191H133.257V10.1124H139.299V16.8539C141.879 12.2022 146.496 9.50562 152.403 9.50562Z" fill="#E6C284"/>
</svg>
